<mxfile host="app.diagrams.net" modified="2023-06-11T10:47:14.692Z" agent="Mozilla/5.0 (Windows NT 10.0; Win64; x64) AppleWebKit/537.36 (KHTML, like Gecko) Chrome/114.0.0.0 Safari/537.36" etag="Cn5cUPqphCGdmEsyrJST" version="21.3.3" type="github">
  <diagram name="Page-1" id="b5b7bab2-c9e2-2cf4-8b2a-24fd1a2a6d21">
    <mxGraphModel dx="1444" dy="840" grid="1" gridSize="10" guides="1" tooltips="1" connect="1" arrows="1" fold="1" page="1" pageScale="1" pageWidth="827" pageHeight="1169" background="none" math="0" shadow="0">
      <root>
        <mxCell id="0" />
        <mxCell id="1" parent="0" />
        <mxCell id="6e0c8c40b5770093-72" value="" style="shape=folder;fontStyle=1;spacingTop=10;tabWidth=194;tabHeight=22;tabPosition=left;html=1;rounded=0;shadow=0;comic=0;labelBackgroundColor=none;strokeWidth=1;fontFamily=Verdana;fontSize=10;align=center;" parent="1" vertex="1">
          <mxGeometry x="326.5" y="230" width="1001" height="400" as="geometry" />
        </mxCell>
        <mxCell id="6e0c8c40b5770093-73" value="BloodNetwork Web Application" style="text;html=1;align=left;verticalAlign=top;spacingTop=-4;fontSize=10;fontFamily=Verdana" parent="1" vertex="1">
          <mxGeometry x="326.5" y="230" width="130" height="20" as="geometry" />
        </mxCell>
        <mxCell id="2G5Nj_QVPm8WkpnqLcrW-1" value="Member DB Set" style="shape=module;align=left;spacingLeft=20;align=center;verticalAlign=top;whiteSpace=wrap;html=1;" vertex="1" parent="1">
          <mxGeometry x="370" y="430" width="100" height="50" as="geometry" />
        </mxCell>
        <mxCell id="2G5Nj_QVPm8WkpnqLcrW-2" value="Appointment DB Set" style="shape=module;align=left;spacingLeft=20;align=center;verticalAlign=top;whiteSpace=wrap;html=1;" vertex="1" parent="1">
          <mxGeometry x="1191" y="430" width="100" height="50" as="geometry" />
        </mxCell>
        <mxCell id="2G5Nj_QVPm8WkpnqLcrW-3" value="Clinic&lt;br&gt;Category DB&amp;nbsp;&lt;br&gt;Set" style="shape=module;align=left;spacingLeft=20;align=center;verticalAlign=top;whiteSpace=wrap;html=1;" vertex="1" parent="1">
          <mxGeometry x="920" y="430" width="100" height="50" as="geometry" />
        </mxCell>
        <mxCell id="2G5Nj_QVPm8WkpnqLcrW-4" value="Clinic&amp;nbsp;DB &lt;br&gt;Set" style="shape=module;align=left;spacingLeft=20;align=center;verticalAlign=top;whiteSpace=wrap;html=1;" vertex="1" parent="1">
          <mxGeometry x="510" y="430" width="100" height="50" as="geometry" />
        </mxCell>
        <mxCell id="2G5Nj_QVPm8WkpnqLcrW-5" value="Adress DB &lt;br&gt;Set" style="shape=module;align=left;spacingLeft=20;align=center;verticalAlign=top;whiteSpace=wrap;html=1;" vertex="1" parent="1">
          <mxGeometry x="640" y="430" width="100" height="50" as="geometry" />
        </mxCell>
        <mxCell id="2G5Nj_QVPm8WkpnqLcrW-6" value="ContactForms DB&amp;nbsp;&lt;br&gt;Set" style="shape=module;align=left;spacingLeft=20;align=center;verticalAlign=top;whiteSpace=wrap;html=1;" vertex="1" parent="1">
          <mxGeometry x="780.5" y="430" width="100" height="50" as="geometry" />
        </mxCell>
        <mxCell id="2G5Nj_QVPm8WkpnqLcrW-15" value="Doctor DB&lt;br&gt;Set" style="shape=module;align=left;spacingLeft=20;align=center;verticalAlign=top;whiteSpace=wrap;html=1;" vertex="1" parent="1">
          <mxGeometry x="1060" y="430" width="100" height="50" as="geometry" />
        </mxCell>
        <mxCell id="2G5Nj_QVPm8WkpnqLcrW-22" value="Database Context" style="html=1;whiteSpace=wrap;" vertex="1" parent="1">
          <mxGeometry x="770.5" y="560" width="110" height="50" as="geometry" />
        </mxCell>
        <mxCell id="2G5Nj_QVPm8WkpnqLcrW-23" value="" style="endArrow=block;dashed=1;endFill=0;endSize=12;html=1;rounded=0;exitX=0.5;exitY=1;exitDx=0;exitDy=0;" edge="1" parent="1" source="2G5Nj_QVPm8WkpnqLcrW-1" target="2G5Nj_QVPm8WkpnqLcrW-22">
          <mxGeometry width="160" relative="1" as="geometry">
            <mxPoint x="750" y="530" as="sourcePoint" />
            <mxPoint x="910" y="530" as="targetPoint" />
          </mxGeometry>
        </mxCell>
        <mxCell id="2G5Nj_QVPm8WkpnqLcrW-25" value="" style="endArrow=block;dashed=1;endFill=0;endSize=12;html=1;rounded=0;entryX=0.25;entryY=0;entryDx=0;entryDy=0;exitX=0;exitY=1;exitDx=10;exitDy=0;exitPerimeter=0;" edge="1" parent="1" source="2G5Nj_QVPm8WkpnqLcrW-4" target="2G5Nj_QVPm8WkpnqLcrW-22">
          <mxGeometry width="160" relative="1" as="geometry">
            <mxPoint x="750" y="530" as="sourcePoint" />
            <mxPoint x="910" y="530" as="targetPoint" />
          </mxGeometry>
        </mxCell>
        <mxCell id="2G5Nj_QVPm8WkpnqLcrW-26" value="" style="endArrow=block;dashed=1;endFill=0;endSize=12;html=1;rounded=0;entryX=0.5;entryY=0;entryDx=0;entryDy=0;exitX=0.5;exitY=1;exitDx=0;exitDy=0;" edge="1" parent="1" source="2G5Nj_QVPm8WkpnqLcrW-5" target="2G5Nj_QVPm8WkpnqLcrW-22">
          <mxGeometry width="160" relative="1" as="geometry">
            <mxPoint x="750" y="530" as="sourcePoint" />
            <mxPoint x="910" y="530" as="targetPoint" />
          </mxGeometry>
        </mxCell>
        <mxCell id="2G5Nj_QVPm8WkpnqLcrW-28" value="" style="endArrow=block;dashed=1;endFill=0;endSize=12;html=1;rounded=0;exitX=0.5;exitY=1;exitDx=0;exitDy=0;entryX=0.617;entryY=-0.024;entryDx=0;entryDy=0;entryPerimeter=0;" edge="1" parent="1" source="2G5Nj_QVPm8WkpnqLcrW-6" target="2G5Nj_QVPm8WkpnqLcrW-22">
          <mxGeometry width="160" relative="1" as="geometry">
            <mxPoint x="750" y="530" as="sourcePoint" />
            <mxPoint x="840" y="570" as="targetPoint" />
          </mxGeometry>
        </mxCell>
        <mxCell id="2G5Nj_QVPm8WkpnqLcrW-29" value="" style="endArrow=block;dashed=1;endFill=0;endSize=12;html=1;rounded=0;exitX=0.5;exitY=1;exitDx=0;exitDy=0;entryX=0.75;entryY=0;entryDx=0;entryDy=0;" edge="1" parent="1" source="2G5Nj_QVPm8WkpnqLcrW-3" target="2G5Nj_QVPm8WkpnqLcrW-22">
          <mxGeometry width="160" relative="1" as="geometry">
            <mxPoint x="750" y="530" as="sourcePoint" />
            <mxPoint x="910" y="530" as="targetPoint" />
          </mxGeometry>
        </mxCell>
        <mxCell id="2G5Nj_QVPm8WkpnqLcrW-30" value="" style="endArrow=block;dashed=1;endFill=0;endSize=12;html=1;rounded=0;exitX=0.25;exitY=1;exitDx=0;exitDy=0;entryX=1;entryY=0.25;entryDx=0;entryDy=0;" edge="1" parent="1" source="2G5Nj_QVPm8WkpnqLcrW-15" target="2G5Nj_QVPm8WkpnqLcrW-22">
          <mxGeometry width="160" relative="1" as="geometry">
            <mxPoint x="980" y="490" as="sourcePoint" />
            <mxPoint x="863" y="570" as="targetPoint" />
          </mxGeometry>
        </mxCell>
        <mxCell id="2G5Nj_QVPm8WkpnqLcrW-31" value="" style="endArrow=block;dashed=1;endFill=0;endSize=12;html=1;rounded=0;exitX=0.5;exitY=1;exitDx=0;exitDy=0;entryX=1;entryY=0.5;entryDx=0;entryDy=0;" edge="1" parent="1" source="2G5Nj_QVPm8WkpnqLcrW-2" target="2G5Nj_QVPm8WkpnqLcrW-22">
          <mxGeometry width="160" relative="1" as="geometry">
            <mxPoint x="1095" y="490" as="sourcePoint" />
            <mxPoint x="891" y="583" as="targetPoint" />
          </mxGeometry>
        </mxCell>
        <mxCell id="2G5Nj_QVPm8WkpnqLcrW-32" value="Adresses" style="shape=module;align=left;spacingLeft=20;align=center;verticalAlign=top;whiteSpace=wrap;html=1;" vertex="1" parent="1">
          <mxGeometry x="640" y="300" width="100" height="50" as="geometry" />
        </mxCell>
        <mxCell id="2G5Nj_QVPm8WkpnqLcrW-33" value="Appointments" style="shape=module;align=left;spacingLeft=20;align=center;verticalAlign=top;whiteSpace=wrap;html=1;" vertex="1" parent="1">
          <mxGeometry x="1191" y="300" width="100" height="50" as="geometry" />
        </mxCell>
        <mxCell id="2G5Nj_QVPm8WkpnqLcrW-34" value="Categories" style="shape=module;align=left;spacingLeft=20;align=center;verticalAlign=top;whiteSpace=wrap;html=1;" vertex="1" parent="1">
          <mxGeometry x="920" y="300" width="100" height="50" as="geometry" />
        </mxCell>
        <mxCell id="2G5Nj_QVPm8WkpnqLcrW-35" value="Clinics" style="shape=module;align=left;spacingLeft=20;align=center;verticalAlign=top;whiteSpace=wrap;html=1;" vertex="1" parent="1">
          <mxGeometry x="500" y="300" width="100" height="50" as="geometry" />
        </mxCell>
        <mxCell id="2G5Nj_QVPm8WkpnqLcrW-36" value="Doctors" style="shape=module;align=left;spacingLeft=20;align=center;verticalAlign=top;whiteSpace=wrap;html=1;" vertex="1" parent="1">
          <mxGeometry x="1060" y="300" width="100" height="50" as="geometry" />
        </mxCell>
        <mxCell id="2G5Nj_QVPm8WkpnqLcrW-37" value="Members" style="shape=module;align=left;spacingLeft=20;align=center;verticalAlign=top;whiteSpace=wrap;html=1;" vertex="1" parent="1">
          <mxGeometry x="370" y="300" width="100" height="50" as="geometry" />
        </mxCell>
        <mxCell id="2G5Nj_QVPm8WkpnqLcrW-38" value="ContactForm" style="shape=module;align=left;spacingLeft=20;align=center;verticalAlign=top;whiteSpace=wrap;html=1;" vertex="1" parent="1">
          <mxGeometry x="780.5" y="300" width="100" height="50" as="geometry" />
        </mxCell>
        <mxCell id="2G5Nj_QVPm8WkpnqLcrW-40" value="" style="endArrow=block;dashed=1;endFill=0;endSize=12;html=1;rounded=0;entryX=0.5;entryY=0;entryDx=0;entryDy=0;exitX=0.5;exitY=1;exitDx=0;exitDy=0;" edge="1" parent="1" source="2G5Nj_QVPm8WkpnqLcrW-37" target="2G5Nj_QVPm8WkpnqLcrW-1">
          <mxGeometry width="160" relative="1" as="geometry">
            <mxPoint x="420" y="350" as="sourcePoint" />
            <mxPoint x="711" y="441" as="targetPoint" />
            <Array as="points" />
          </mxGeometry>
        </mxCell>
        <mxCell id="2G5Nj_QVPm8WkpnqLcrW-42" value="" style="endArrow=block;dashed=1;endFill=0;endSize=12;html=1;rounded=0;entryX=0.5;entryY=0;entryDx=0;entryDy=0;" edge="1" parent="1" target="2G5Nj_QVPm8WkpnqLcrW-4">
          <mxGeometry width="160" relative="1" as="geometry">
            <mxPoint x="560" y="350" as="sourcePoint" />
            <mxPoint x="440" y="450" as="targetPoint" />
            <Array as="points" />
          </mxGeometry>
        </mxCell>
        <mxCell id="2G5Nj_QVPm8WkpnqLcrW-43" value="" style="endArrow=block;dashed=1;endFill=0;endSize=12;html=1;rounded=0;entryX=0.5;entryY=0;entryDx=0;entryDy=0;" edge="1" parent="1">
          <mxGeometry width="160" relative="1" as="geometry">
            <mxPoint x="700" y="350" as="sourcePoint" />
            <mxPoint x="700" y="430" as="targetPoint" />
            <Array as="points" />
          </mxGeometry>
        </mxCell>
        <mxCell id="2G5Nj_QVPm8WkpnqLcrW-44" value="" style="endArrow=block;dashed=1;endFill=0;endSize=12;html=1;rounded=0;entryX=0.5;entryY=0;entryDx=0;entryDy=0;" edge="1" parent="1">
          <mxGeometry width="160" relative="1" as="geometry">
            <mxPoint x="840" y="350" as="sourcePoint" />
            <mxPoint x="840" y="430" as="targetPoint" />
            <Array as="points">
              <mxPoint x="840" y="380" />
            </Array>
          </mxGeometry>
        </mxCell>
        <mxCell id="2G5Nj_QVPm8WkpnqLcrW-45" value="" style="endArrow=block;dashed=1;endFill=0;endSize=12;html=1;rounded=0;entryX=0.5;entryY=0;entryDx=0;entryDy=0;" edge="1" parent="1">
          <mxGeometry width="160" relative="1" as="geometry">
            <mxPoint x="980" y="350" as="sourcePoint" />
            <mxPoint x="980" y="430" as="targetPoint" />
            <Array as="points" />
          </mxGeometry>
        </mxCell>
        <mxCell id="2G5Nj_QVPm8WkpnqLcrW-46" value="" style="endArrow=block;dashed=1;endFill=0;endSize=12;html=1;rounded=0;entryX=0.5;entryY=0;entryDx=0;entryDy=0;" edge="1" parent="1">
          <mxGeometry width="160" relative="1" as="geometry">
            <mxPoint x="1120" y="350" as="sourcePoint" />
            <mxPoint x="1120" y="430" as="targetPoint" />
            <Array as="points" />
          </mxGeometry>
        </mxCell>
        <mxCell id="2G5Nj_QVPm8WkpnqLcrW-47" value="" style="endArrow=block;dashed=1;endFill=0;endSize=12;html=1;rounded=0;entryX=0.5;entryY=0;entryDx=0;entryDy=0;" edge="1" parent="1">
          <mxGeometry width="160" relative="1" as="geometry">
            <mxPoint x="1250" y="350" as="sourcePoint" />
            <mxPoint x="1250" y="430" as="targetPoint" />
            <Array as="points" />
          </mxGeometry>
        </mxCell>
      </root>
    </mxGraphModel>
  </diagram>
</mxfile>
